# xmcd
#
# Track frame offsets:
#	187
#	6467
#	24045
#	30472
#	43252
#	56560
#	62542
#	69195
#	80895
#	89460
#	95355
#	108967
#	121947
#	136225
#	142280
#	155205
#	160680
#	171802
#	183117
#	194590
#	199885
#	211435
#	217392
#	227500
#
# Disc length: 3252 seconds
#
# Revision: 1
# Processed by: cddbd v1.5.1PL0 Copyright (c) Steve Scherf et al.
# Submitted via: CDex 1.50Beta5
#
DISCID=590cb218
DTITLE=渡辺俊幸 - 太陽の勇者ファイバード
DYEAR=1900
DGENRE=Anime
TTITLE0=ドライアス〜悪の生命体
TTITLE1=太陽の翼
TTITLE2=美しい地球
TTITLE3=僕らの街
TTITLE4=2大将軍シュラ&ゾル
TTITLE5=天野平和科学研究所
TTITLE6=天野博士
TTITLE7=メカ獣出現
TTITLE8=発進!ファイアージェット
TTITLE9=ドクター・ジャンゴ
TTITLE10=走れケンタ!
TTITLE11=大苦戦
TTITLE12=悲しみ
TTITLE13=緊急発進
TTITLE14=街をぬけて
TTITLE15=ガードチーム出動せよ
TTITLE16=遠い星の伝説
TTITLE17=合体!サンダーバロン
TTITLE18=激突
TTITLE19=武装ファイバード登場!
TTITLE20=ファイアーバトル
TTITLE21=必殺!フレイムソード
TTITLE22=平和への願い
TTITLE23=見つめていたい
EXTD=
EXTT0=
EXTT1=
EXTT2=
EXTT3=
EXTT4=
EXTT5=
EXTT6=
EXTT7=
EXTT8=
EXTT9=
EXTT10=
EXTT11=
EXTT12=
EXTT13=
EXTT14=
EXTT15=
EXTT16=
EXTT17=
EXTT18=
EXTT19=
EXTT20=
EXTT21=
EXTT22=
EXTT23=
PLAYORDER=
